<?xml version="1.0" encoding="utf-8"?>
<!-- Generator: Adobe Illustrator 23.1.0, SVG Export Plug-In . SVG Version: 6.00 Build 0)  -->
<svg version="1.1" id="Layer_1" xmlns="http://www.w3.org/2000/svg" xmlns:xlink="http://www.w3.org/1999/xlink" x="0px" y="0px"
	 viewBox="0 0 50 50" style="enable-background:new 0 0 50 50;" xml:space="preserve">
<style type="text/css">
	.st0{fill:#FFFFFF;}
	.st1{fill:#385959;}
	.st2{opacity:0.75;fill:#D96D55;enable-background:new    ;}
	.st3{opacity:0.4;}
</style>
<title>burger_50x50</title>
<path class="st0" d="M4.5,1.2h41c1.9,0,3.4,1.5,3.4,3.4v41c0,1.9-1.5,3.4-3.4,3.4h-41c-1.9,0-3.4-1.5-3.4-3.4v-41
	C1.2,2.7,2.7,1.2,4.5,1.2z"/>
<path class="st1" d="M45.5,2.3c1.2,0,2.2,1,2.2,2.2v41c0,1.2-1,2.2-2.2,2.2h-41c-1.2,0-2.2-1-2.2-2.2v-41c0-1.2,1-2.2,2.2-2.2H45.5
	 M45.5,0h-41C2,0,0,2,0,4.5v41C0,48,2,50,4.5,50h41c2.5,0,4.5-2,4.5-4.5v-41C50,2,48,0,45.5,0z"/>
<path class="st2" d="M49,8C23.4,15.4,8.6,27,1,35v6.8L1.6,42l0.1,0C15.8,21.3,38.7,11.6,49,8.2V8z"/>
<path class="st1" d="M45.5,3.8c0.4,0,0.8,0.3,0.8,0.8v41c0,0.4-0.3,0.8-0.8,0.8h-41c-0.4,0-0.8-0.3-0.8-0.8v-41
	c0-0.4,0.3-0.8,0.8-0.8H45.5 M45.5,0h-41C2,0,0,2,0,4.5v41C0,48,2,50,4.5,50h41c2.5,0,4.5-2,4.5-4.5v-41C50,2,48,0,45.5,0z"/>
<path class="st1" d="M10.5,10.7h29.2c1.3,0,2.3,1,2.3,2.3v0.3c0,1.3-1,2.3-2.3,2.3H10.5c-1.3,0-2.3-1-2.3-2.3V13
	C8.2,11.7,9.3,10.7,10.5,10.7z"/>
<g class="st3">
	<path class="st0" d="M10.7,11.3h29c1.1-0.1,2,0.8,2.1,1.9c0,0,0,0.1,0,0.1c0-0.1,0-0.1,0-0.2c0.1-1.1-0.8-2.1-1.9-2.1
		c-0.1,0-0.1,0-0.2,0h-29c-1.1-0.1-2.1,0.8-2.1,1.9c0,0.1,0,0.1,0,0.2c0,0.1,0,0.1,0,0.2c0-1.1,0.9-2,2-2
		C10.6,11.3,10.6,11.3,10.7,11.3z"/>
</g>
<path class="st1" d="M10.3,22.5h29.2c1.3,0,2.3,1,2.3,2.3v0.3c0,1.3-1,2.3-2.3,2.3H10.3c-1.3,0-2.3-1-2.3-2.3v-0.3
	C7.9,23.6,9,22.5,10.3,22.5z"/>
<g class="st3">
	<path class="st0" d="M10.4,23.2h29c1.1-0.1,2,0.8,2.1,1.9c0,0,0,0.1,0,0.1c0-0.1,0-0.1,0-0.2c0.1-1.1-0.8-2.1-1.9-2.1
		c-0.1,0-0.1,0-0.2,0h-29c-1.1-0.1-2.1,0.8-2.1,1.9c0,0.1,0,0.1,0,0.2c0,0.1,0,0.1,0,0.2c0-1.1,0.9-2,2-2
		C10.3,23.2,10.3,23.2,10.4,23.2z"/>
</g>
<path class="st1" d="M10,34.4h29.2c1.3,0,2.3,1,2.3,2.3V37c0,1.3-1,2.3-2.3,2.3H10c-1.3,0-2.3-1-2.3-2.3v-0.3
	C7.7,35.4,8.7,34.4,10,34.4z"/>
<g class="st3">
	<path class="st0" d="M10.1,35h29c1.1-0.1,2,0.8,2.1,1.9c0,0,0,0.1,0,0.1c0-0.1,0-0.1,0-0.2c0.1-1.1-0.8-2.1-1.9-2.1
		c-0.1,0-0.1,0-0.2,0h-29c-1-0.1-2,0.6-2.1,1.6c0,0.1,0,0.2,0,0.3c0,0.1,0,0,0,0.3c0-1.1,0.9-2,2-2C10,35,10,35,10.1,35z"/>
</g>
</svg>
