<svg id="Layer_1" data-name="Layer 1" xmlns="http://www.w3.org/2000/svg" viewBox="0 0 50 50"><defs><style>.cls-1{fill:#fff;}.cls-2{fill:#385959;}.cls-3,.cls-4{fill:#d96d55;}.cls-3{opacity:0.3;}</style></defs><rect class="cls-1" x="1.16" y="1.16" width="47.69" height="47.69" rx="3.35"/><path class="cls-2" d="M45.49,2.31a2.21,2.21,0,0,1,2.2,2.2v41a2.21,2.21,0,0,1-2.2,2.2h-41a2.21,2.21,0,0,1-2.2-2.2v-41a2.21,2.21,0,0,1,2.2-2.2h41m0-2.31h-41A4.51,4.51,0,0,0,0,4.51v41A4.51,4.51,0,0,0,4.51,50h41A4.51,4.51,0,0,0,50,45.49v-41A4.51,4.51,0,0,0,45.49,0Z"/><path class="cls-3" d="M49,8.05C23.36,15.37,8.65,27.05,1,35v6.79l.6.18h.07C15.77,21.27,38.73,11.65,49,8.21Z"/><path class="cls-2" d="M45.49,3.76a.76.76,0,0,1,.75.75v41a.76.76,0,0,1-.75.75h-41a.76.76,0,0,1-.75-.75v-41a.76.76,0,0,1,.75-.75h41m0-3.76h-41A4.51,4.51,0,0,0,0,4.51v41A4.51,4.51,0,0,0,4.51,50h41A4.51,4.51,0,0,0,50,45.49v-41A4.51,4.51,0,0,0,45.49,0Z"/><rect class="cls-4" x="1.31" y="20.86" width="47.38" height="7.78" rx="2.5" transform="translate(-10.18 24.93) rotate(-45)"/><rect class="cls-4" x="1.31" y="20.86" width="47.38" height="7.78" rx="2.5" transform="translate(24.82 -10.43) rotate(45)"/></svg>