<svg id="Layer_1" data-name="Layer 1" xmlns="http://www.w3.org/2000/svg" xmlns:xlink="http://www.w3.org/1999/xlink" viewBox="0 0 27 60"><defs><style>.cls-1{fill:#f2ae30;}.cls-2{fill:url(#linear-gradient);}.cls-3{fill:url(#linear-gradient-2);}</style><linearGradient id="linear-gradient" y1="69.2539" x2="27" y2="69.2539" gradientTransform="translate(27 100) rotate(180)" gradientUnits="userSpaceOnUse"><stop offset="0.261" stop-color="#f2ae30"/><stop offset="0.3243" stop-color="#f29426"/><stop offset="0.4023" stop-color="#f27a1b"/><stop offset="0.4728" stop-color="#f26a15"/><stop offset="0.5286" stop-color="#f26513"/><stop offset="0.611" stop-color="#f27218"/><stop offset="0.7641" stop-color="#f29526"/><stop offset="0.858" stop-color="#f2ae30"/></linearGradient><linearGradient id="linear-gradient-2" x1="5.0073" y1="60.0176" x2="21.2474" y2="60.0176" gradientTransform="translate(27 100) rotate(180)" gradientUnits="userSpaceOnUse"><stop offset="0.2648" stop-color="#f26513"/><stop offset="0.3479" stop-color="#de530f"/><stop offset="0.5179" stop-color="#aa2404"/><stop offset="0.5286" stop-color="#a62103"/><stop offset="0.5339" stop-color="#a82303"/><stop offset="0.6225" stop-color="#c8400a"/><stop offset="0.708" stop-color="#df540f"/><stop offset="0.7883" stop-color="#ed6112"/><stop offset="0.858" stop-color="#f26513"/></linearGradient></defs><title>launch_flame_27x60</title><g id="flame_outer" data-name="flame outer"><path class="cls-1" d="M13.5052,0l.0062.0188.0012-.0026Z"/><path class="cls-2" d="M2.3,43.25a3.2594,3.2594,0,0,1-2.3,0q3.4877,3.1694,2.7788,3.9569-.3855.4284-2.0122.1522l1.15,2.0545a19.7368,19.7368,0,0,0-.3833,6.62A20.066,20.066,0,0,0,2.3955,60h22.209a20.066,20.066,0,0,0,.8624-3.9664,19.7368,19.7368,0,0,0-.3833-6.62l1.15-2.0545q-1.6266.2762-2.0122-.1522Q23.5125,46.4189,27,43.25a3.2594,3.2594,0,0,1-2.3,0c-.9763-.5716-1.0328-2.3907.5749-4.2613a2.6711,2.6711,0,0,1-1.9164-.0761c-1.1473-.6165-1.1687-2.7227.3833-5.1744a2.0978,2.0978,0,0,1-1.4373-.3805c-.95-.82.6735-2.3078.3833-4.6418-.184-1.4795-.8924-1.3334-1.15-2.8916-.348-2.1055.2765-2.5912.23-4.6322-.0458-1.989-1.2577-2.31-2.0122-4.8035-.7368-2.4344.4748-2.8143-.1917-4.87C19.0075,9.802,18.04,9.2744,16.3061,7.1047a9.9048,9.9048,0,0,1-2.0239-3.7133,13.1138,13.1138,0,0,1-.7868-1.8992,26.3947,26.3947,0,0,1-3.4343,5.6125,10.4988,10.4988,0,0,0-2.4668,4.4135c-.6665,2.0558.5451,2.4357-.1917,4.87-.7545,2.4934-1.9664,2.8145-2.0122,4.8035-.0469,2.041.4193,2.5267.0713,4.6322-.2574,1.5582-.9658,1.4121-1.15,2.8916-.29,2.334,1.3329,3.8216.3833,4.6418a2.0978,2.0978,0,0,1-1.4373.3805c1.552,2.4517,1.5306,4.5579.3833,5.1744a2.6711,2.6711,0,0,1-1.9164.0761C3.3325,40.859,3.276,42.6781,2.3,43.25Z"/></g><path id="flame_inner" data-name="flame inner" class="cls-3" d="M5.8238,56.338A14.2482,14.2482,0,0,0,7.4527,60h12.84a14.2482,14.2482,0,0,0,1.6289-3.662c.0668-.27.155-.7008-.0958-.8371s-.69.1024-1.3415.38c-.9006.3846-2.286.9763-2.5871.7609-.3264-.2335.8171-1.2758,1.8206-3.272a7.27,7.27,0,0,0,.7665-4.49c-.19-.9565-.498-1.1151-.6707-1.1414-.4886-.0747-.9245.7521-1.15.6848-.4361-.13.4838-3.4408.8623-6.8485.0388-.3487.1461-1.3971-.2874-1.5219-.4232-.1218-.9027.7684-1.3415.6849-.9132-.174-1.2427-4.4889.2875-6.9247.0716-.114.5968-.9393.3832-1.0653-.1983-.1169-.7508.5363-1.2456.4566-.7263-.1169-.5935-1.6945-1.15-3.9474-.6486-2.6266-1.4043-2.8114-1.2456-4.423.0992-1.0071.4386-1.3852.2874-2.3589a4.8006,4.8006,0,0,0-1.3414-2.5112,4.8007,4.8007,0,0,0-1.3415,2.5112c-.1512.9737.1883,1.3518.2874,2.3589.1587,1.6116-.597,1.7964-1.2456,4.423-.5564,2.2529-.4236,3.83-1.15,3.9474-.4947.08-1.0473-.5735-1.2456-.4566-.2135.126.3116.9513.3833,1.0653,1.53,2.4358,1.2006,6.7507.2874,6.9247-.4387.0835-.9183-.8067-1.3415-.6849-.4335.1248-.3262,1.1732-.2874,1.5219.3785,3.4077,1.2985,6.7183.8624,6.8485-.2253.0673-.6612-.76-1.15-.6848-.1727.0263-.4806.1849-.6707,1.1414a7.27,7.27,0,0,0,.7665,4.49c1.0035,1.9962,2.147,3.0385,1.8206,3.272-.3011.2154-1.6865-.3763-2.5871-.7609-.6512-.2781-1.091-.5166-1.3415-.38S5.757,56.0676,5.8238,56.338Z"/></svg>