<svg xmlns="http://www.w3.org/2000/svg" viewBox="0 0 60 27"><defs><style>.cls-1{fill:#fff;}</style></defs><title>launch_cloud_60x27-02</title><g id="Layer_3" data-name="Layer 3"><path class="cls-1" d="M6.3356,14.541c-3.09-2.0246-3.73-3.8975-3.9043-4.6407-.0386-.1649-.0652-.3214-.0692-.3444A5.9565,5.9565,0,0,1,3.37,4.9116a5.62,5.62,0,0,1,4.092-2.1269,4.4806,4.4806,0,0,1,3.8667,1.3922,4.0215,4.0215,0,0,1,.7508,2.707,2.1474,2.1474,0,0,1-.6382,1.6242c-.6323.4467-1.5084.03-1.5392.1547a1.3823,1.3823,0,0,0,1.4547.4157,1.7054,1.7054,0,0,0,.8822-.9474,4.053,4.053,0,0,0,.2659-2.807,4.1219,4.1219,0,0,0-1.2638-1.9207,4.8681,4.8681,0,0,0-1.314-.8765A4.6557,4.6557,0,0,1,11.5287.6835a3.7859,3.7859,0,0,1,1.7894-.67A3.92,3.92,0,0,1,15.996.864a4.7,4.7,0,0,1,1.6893,2.6168,2.5169,2.5169,0,0,1,1.2389.0387,2.7679,2.7679,0,0,1,.7007.3351,3.6964,3.6964,0,0,1,1.5142,1.5727,2.2254,2.2254,0,0,1,.25,1.6113,1.8223,1.8223,0,0,1-.7007.9668,2.0429,2.0429,0,0,1-1.9772.0645c-.207-.0988-.8379-.4-.926-.98a.9374.9374,0,0,1,.1377-.6575.9011.9011,0,0,1,.6006-.3738.8563.8563,0,0,0-.6381.0516.9278.9278,0,0,0-.413.5156,1.9619,1.9619,0,0,0,.3879,1.6629,2.0958,2.0958,0,0,0-1.0261.1289,1.701,1.701,0,0,0-.7883.5414,1.6006,1.6006,0,0,0-.2753.5543,1.58,1.58,0,0,1,.7633-.3609,1.1032,1.1032,0,0,1,.951.1933.7487.7487,0,0,1,.25.6059c-.0436.2056-.2266.3095-.5506.5027-.3318.1979-.6455.43-.9886.6059A5.3216,5.3216,0,0,0,14.57,12.5816a5.97,5.97,0,0,0-1.2138,1.8949A4.986,4.986,0,0,0,13.08,16.539a4.09,4.09,0,0,1,.951-1.6887,1.6514,1.6514,0,0,1,1.0511-.6316.8906.8906,0,0,1,.6883.2062.9239.9239,0,0,1,.2377.6059,3.9722,3.9722,0,0,1-.35,1.7016,5.4232,5.4232,0,0,0-.1126,1.9078,8.824,8.824,0,0,0,1.0386,3.7254,9.6524,9.6524,0,0,0,2.14,2.7328A10.803,10.803,0,0,0,20.8262,26.62l-2.84-.2836a14.6646,14.6646,0,0,1-1.4266-1.6887,15.8366,15.8366,0,0,1-1.1512-1.8691,13.9493,13.9493,0,0,1-1.3265-5.13,5.5445,5.5445,0,0,0-.1877,1.7531,5.6731,5.6731,0,0,0,.3379,1.6114c.6487,1.88,1.633,4.0632,1.8895,4.6277a4.622,4.622,0,0,1-1.1262-.67,4.7406,4.7406,0,0,1-.9385-1.0184,6.4166,6.4166,0,0,0,1.0386,2.5782,5.3568,5.3568,0,0,1-2.2274-.49,12.44,12.44,0,0,1-2.0772-3.184,12.8191,12.8191,0,0,1-1.1262-5.0789A8.5422,8.5422,0,0,0,9.5265,19.13a8.6975,8.6975,0,0,0,.463,2.9778,20.6609,20.6609,0,0,1-.7508-2.05c-.2127-.6812-.37-1.2523-.4755-1.65a13.1221,13.1221,0,0,0,.0876,1.6758A13.9462,13.9462,0,0,0,9.7267,23.5c.4026.971.6279,1.1519.5506,1.6113-.1507.8955-1.2058,1.39-1.5141,1.534a4.8487,4.8487,0,0,1-4.092-.2707,6.9358,6.9358,0,0,1-1.9646-1.7789,2.0855,2.0855,0,0,1-.4755-.7993,1.6566,1.6566,0,0,1,.025-1.1988c.2916-.57.9227-.5384.9511-.9023.02-.2523-.2768-.3544-.6007-.7993a3.1618,3.1618,0,0,1-.5005-1.2375,4.1958,4.1958,0,0,1,.1-2.4363A3.9742,3.9742,0,0,1,4.934,14.7343,4.6387,4.6387,0,0,1,6.3356,14.541Z"/><path class="cls-1" d="M3.5826,13.1617a3.535,3.535,0,0,1-.7634-.8766c-.2736-.3854-.3248-.5618-.5756-.6832A.7107.7107,0,0,0,1.693,11.55a.8252.8252,0,0,0-.4254.5028A1.6579,1.6579,0,0,0,1.28,13.239a1.8031,1.8031,0,0,0,1.1888,1.0055c.0279.0071.4023-.0168,1.1512-.0645.2132-.0136.4562-.0325.5631-.2062a.3845.3845,0,0,0,.05-.2321C4.2035,13.49,3.9092,13.4064,3.5826,13.1617Z"/><path class="cls-1" d="M.2852,20.6833a1.0415,1.0415,0,0,1,.682-.3029,1.1931,1.1931,0,0,1,.8134.2127c.0616.0447.5455.3959.4755.8508a.9271.9271,0,0,1-.5318.6059,1.2893,1.2893,0,0,1-1.12.0773.95.95,0,0,1-.5818-.5994A.9685.9685,0,0,1,.2852,20.6833Z"/><path class="cls-1" d="M18.1108,18.2921c.3508.7868,1.05,2.2216,1.3139,2.7071a6.2894,6.2894,0,0,0,1.6893,1.998,5.6763,5.6763,0,0,0,.8134.5156,8.1982,8.1982,0,0,1-.4755-.825,4.4057,4.4057,0,0,1-.4-1.0957c-.1052-.4978-.0353-.6465.0375-.7218a.3427.3427,0,0,1,.2753-.1032c.2645.03.413.4314.5131.6575A7.7567,7.7567,0,0,0,22.891,22.791a8.9131,8.9131,0,0,0,2.14,1.9336,13.4494,13.4494,0,0,0,4.7051,2.14,9.5214,9.5214,0,0,1-1.2138.0258,10.9189,10.9189,0,0,1-6.0691-2.32,5.8354,5.8354,0,0,0,.4255.6574,6.0386,6.0386,0,0,0,1.1387,1.1473,7.1754,7.1754,0,0,0,.7383.5156,5.6945,5.6945,0,0,1-1.0386-.2063,6.8191,6.8191,0,0,1-2.5152-1.4953,11.4444,11.4444,0,0,1-2.8657-3.39A15.2592,15.2592,0,0,1,17.46,19.04a1.2012,1.2012,0,0,1,.05-.98.345.345,0,0,1,.25-.1547C17.9428,17.9131,18.0663,18.1924,18.1108,18.2921Z"/><path class="cls-1" d="M17.76,12.414c-.0862-.1143.3952-.6929.901-1.1215a3.4018,3.4018,0,0,1,1.3264-.7734,1.79,1.79,0,0,1,1.2764-.0258c.0683.03.7064.3195.7884.8637.08.5294-.4208.9423-.25,1.16.0871.1113.2308.02.5005.1547a1.216,1.216,0,0,1,.438.4125,1.7026,1.7026,0,0,1,.4.9281,1.5783,1.5783,0,0,1-.45,1.1731c-.2753.2688-.7411.5007-.926.348-.1183-.0976-.0264-.2737-.0876-.6574a2.0521,2.0521,0,0,0-.35-.8508,1.9254,1.9254,0,0,0-1.1012-.6574,4.6267,4.6267,0,0,0-.9636-.1031c-.44-.023-.806-.0269-1.0636-.0258a2.6778,2.6778,0,0,1,.8634-.5543,2.6052,2.6052,0,0,1,.6883-.1676,1.5446,1.5446,0,0,0-.6507-.2707,2.1664,2.1664,0,0,0-.7759.0516C17.9253,12.3757,17.8,12.4665,17.76,12.414Z"/><path class="cls-1" d="M53.6644,14.541c3.09-2.0246,3.73-3.8975,3.9043-4.6407.0386-.1649.0652-.3214.0692-.3444A5.9565,5.9565,0,0,0,56.63,4.9116a5.62,5.62,0,0,0-4.092-2.1269,4.4806,4.4806,0,0,0-3.8667,1.3922,4.0215,4.0215,0,0,0-.7508,2.707,2.1474,2.1474,0,0,0,.6382,1.6242c.6323.4467,1.5084.03,1.5392.1547a1.3823,1.3823,0,0,1-1.4547.4157,1.7054,1.7054,0,0,1-.8822-.9474,4.053,4.053,0,0,1-.2659-2.807,4.1219,4.1219,0,0,1,1.2638-1.9207,4.8681,4.8681,0,0,1,1.314-.8765A4.6557,4.6557,0,0,0,48.4713.6835a3.7859,3.7859,0,0,0-1.7894-.67A3.92,3.92,0,0,0,44.004.864a4.7,4.7,0,0,0-1.6893,2.6168,2.5169,2.5169,0,0,0-1.2389.0387,2.7679,2.7679,0,0,0-.7007.3351,3.6964,3.6964,0,0,0-1.5142,1.5727,2.2254,2.2254,0,0,0-.25,1.6113,1.8223,1.8223,0,0,0,.7007.9668,2.0429,2.0429,0,0,0,1.9772.0645c.207-.0988.8379-.4.926-.98a.9374.9374,0,0,0-.1377-.6575.9011.9011,0,0,0-.6006-.3738.8563.8563,0,0,1,.6381.0516.9278.9278,0,0,1,.413.5156A1.9619,1.9619,0,0,1,42.14,8.289a2.0958,2.0958,0,0,1,1.0261.1289,1.701,1.701,0,0,1,.7883.5414,1.6006,1.6006,0,0,1,.2753.5543,1.58,1.58,0,0,0-.7633-.3609,1.1032,1.1032,0,0,0-.951.1933.7487.7487,0,0,0-.25.6059c.0436.2056.2266.3095.5506.5027.3318.1979.6455.43.9886.6059a5.3216,5.3216,0,0,1,1.6267,1.5211,5.97,5.97,0,0,1,1.2138,1.8949A4.986,4.986,0,0,1,46.92,16.539a4.09,4.09,0,0,0-.951-1.6887,1.6514,1.6514,0,0,0-1.0511-.6316.8906.8906,0,0,0-.6883.2062.9239.9239,0,0,0-.2377.6059,3.9722,3.9722,0,0,0,.35,1.7016,5.4232,5.4232,0,0,1,.1126,1.9078,8.824,8.824,0,0,1-1.0386,3.7254,9.6524,9.6524,0,0,1-2.14,2.7328A10.803,10.803,0,0,1,39.1738,26.62l2.84-.2836a14.6646,14.6646,0,0,0,1.4266-1.6887,15.8366,15.8366,0,0,0,1.1512-1.8691,13.9493,13.9493,0,0,0,1.3265-5.13,5.5445,5.5445,0,0,1,.1877,1.7531,5.6731,5.6731,0,0,1-.3379,1.6114c-.6487,1.88-1.633,4.0632-1.8895,4.6277a4.622,4.622,0,0,0,1.1262-.67,4.7406,4.7406,0,0,0,.9385-1.0184,6.4166,6.4166,0,0,1-1.0386,2.5782,5.3568,5.3568,0,0,0,2.2274-.49,12.44,12.44,0,0,0,2.0772-3.184,12.8191,12.8191,0,0,0,1.1262-5.0789,8.5422,8.5422,0,0,1,.1377,1.3535,8.6975,8.6975,0,0,1-.463,2.9778,20.6609,20.6609,0,0,0,.7508-2.05c.2127-.6812.37-1.2523.4755-1.65a13.1221,13.1221,0,0,1-.0876,1.6758A13.9462,13.9462,0,0,1,50.2733,23.5c-.4026.971-.6279,1.1519-.5506,1.6113.1507.8955,1.2058,1.39,1.5141,1.534a4.8487,4.8487,0,0,0,4.092-.2707,6.9358,6.9358,0,0,0,1.9646-1.7789,2.0855,2.0855,0,0,0,.4755-.7993,1.6566,1.6566,0,0,0-.025-1.1988c-.2916-.57-.9227-.5384-.9511-.9023-.02-.2523.2768-.3544.6007-.7993a3.1618,3.1618,0,0,0,.5-1.2375,4.1958,4.1958,0,0,0-.1-2.4363,3.9742,3.9742,0,0,0-2.7279-2.4879A4.6387,4.6387,0,0,0,53.6644,14.541Z"/><path class="cls-1" d="M56.4174,13.1617a3.535,3.535,0,0,0,.7634-.8766c.2736-.3854.3248-.5618.5756-.6832a.7107.7107,0,0,1,.5506-.0516.8252.8252,0,0,1,.4254.5028A1.6579,1.6579,0,0,1,58.72,13.239a1.8031,1.8031,0,0,1-1.1888,1.0055c-.0279.0071-.4023-.0168-1.1512-.0645-.2132-.0136-.4562-.0325-.5631-.2062a.3845.3845,0,0,1-.05-.2321C55.7965,13.49,56.0908,13.4064,56.4174,13.1617Z"/><path class="cls-1" d="M59.7148,20.6833a1.0415,1.0415,0,0,0-.682-.3029,1.1931,1.1931,0,0,0-.8134.2127c-.0616.0447-.5455.3959-.4755.8508a.9271.9271,0,0,0,.5318.6059,1.2893,1.2893,0,0,0,1.12.0773.95.95,0,0,0,.5818-.5994A.9685.9685,0,0,0,59.7148,20.6833Z"/><path class="cls-1" d="M41.8892,18.2921c-.3508.7868-1.05,2.2216-1.3139,2.7071a6.2894,6.2894,0,0,1-1.6893,1.998,5.6763,5.6763,0,0,1-.8134.5156,8.1982,8.1982,0,0,0,.4755-.825,4.4057,4.4057,0,0,0,.4-1.0957c.1052-.4978.0353-.6465-.0375-.7218a.3427.3427,0,0,0-.2753-.1032c-.2645.03-.413.4314-.5131.6575A7.7567,7.7567,0,0,1,37.109,22.791a8.9131,8.9131,0,0,1-2.14,1.9336,13.4494,13.4494,0,0,1-4.7051,2.14,9.5214,9.5214,0,0,0,1.2138.0258,10.9189,10.9189,0,0,0,6.0691-2.32,5.8354,5.8354,0,0,1-.4255.6574,6.0386,6.0386,0,0,1-1.1387,1.1473,7.1754,7.1754,0,0,1-.7383.5156,5.6945,5.6945,0,0,0,1.0386-.2063,6.8191,6.8191,0,0,0,2.5152-1.4953,11.4444,11.4444,0,0,0,2.8657-3.39A15.2592,15.2592,0,0,0,42.54,19.04a1.2012,1.2012,0,0,0-.05-.98.345.345,0,0,0-.25-.1547C42.0572,17.9131,41.9337,18.1924,41.8892,18.2921Z"/><path class="cls-1" d="M42.24,12.414c.0862-.1143-.3952-.6929-.901-1.1215a3.4018,3.4018,0,0,0-1.3264-.7734,1.79,1.79,0,0,0-1.2764-.0258c-.0683.03-.7064.3195-.7884.8637-.08.5294.4208.9423.25,1.16-.0871.1113-.2308.02-.5.1547a1.216,1.216,0,0,0-.438.4125,1.7026,1.7026,0,0,0-.4.9281,1.5783,1.5783,0,0,0,.45,1.1731c.2753.2688.7411.5007.926.348.1183-.0976.0264-.2737.0876-.6574a2.0521,2.0521,0,0,1,.35-.8508,1.9254,1.9254,0,0,1,1.1012-.6574,4.6267,4.6267,0,0,1,.9636-.1031c.44-.023.806-.0269,1.0636-.0258a2.6778,2.6778,0,0,0-.8634-.5543,2.6052,2.6052,0,0,0-.6883-.1676,1.5446,1.5446,0,0,1,.6507-.2707,2.1664,2.1664,0,0,1,.7759.0516C42.0747,12.3757,42.2,12.4665,42.24,12.414Z"/></g></svg>