<svg xmlns="http://www.w3.org/2000/svg" xmlns:xlink="http://www.w3.org/1999/xlink" viewBox="0 0 27 100"><defs><style>.cls-1{isolation:isolate;}.cls-2{fill:url(#linear-gradient);}.cls-3{opacity:0.5;mix-blend-mode:multiply;fill:url(#linear-gradient-2);}.cls-4{fill:url(#linear-gradient-3);}.cls-5{fill:url(#linear-gradient-4);}.cls-6{fill:#d96d55;}.cls-7{fill:#f2ae30;}.cls-8{fill:url(#linear-gradient-5);}.cls-9{fill:url(#linear-gradient-6);}.cls-10{mix-blend-mode:lighten;fill:url(#linear-gradient-7);}.cls-11{fill:#231f20;}.cls-12{fill:#a7a8ab;}</style><linearGradient id="linear-gradient" x1="3.9736" y1="28.6866" x2="28.1796" y2="31.1758" gradientUnits="userSpaceOnUse"><stop offset="0" stop-color="#f2f2dc"/><stop offset="0.2782" stop-color="#f0f0da"/><stop offset="0.4139" stop-color="#e8e8d3"/><stop offset="0.5187" stop-color="#dbdbc7"/><stop offset="0.6078" stop-color="#c9c9b6"/><stop offset="0.6868" stop-color="#b0b0a0"/><stop offset="0.7587" stop-color="#939385"/><stop offset="0.8253" stop-color="#6f6f65"/><stop offset="0.8876" stop-color="#464640"/><stop offset="0.9444" stop-color="#191917"/><stop offset="0.9721"/></linearGradient><linearGradient id="linear-gradient-2" x1="-4.5763" y1="49.1665" x2="31.3653" y2="54.8274" gradientUnits="userSpaceOnUse"><stop offset="0.332" stop-opacity="0.2"/><stop offset="0.373" stop-color="#454545" stop-opacity="0.2"/><stop offset="0.4439" stop-color="#999" stop-opacity="0.2"/><stop offset="0.5322" stop-color="#d4d4d4" stop-opacity="0.2"/><stop offset="0.6561" stop-color="#f6f6f6" stop-opacity="0.2"/><stop offset="1" stop-color="#fff" stop-opacity="0.2"/></linearGradient><linearGradient id="linear-gradient-3" x1="14.2942" y1="54.7414" x2="1.759" y2="59.2211" gradientUnits="userSpaceOnUse"><stop offset="0.1101"/><stop offset="0.1264" stop-color="#130a07"/><stop offset="0.1664" stop-color="#3c1e18"/><stop offset="0.2112" stop-color="#623126"/><stop offset="0.2601" stop-color="#824233"/><stop offset="0.314" stop-color="#9e4f3e"/><stop offset="0.3749" stop-color="#b45a46"/><stop offset="0.4461" stop-color="#c5634d"/><stop offset="0.5341" stop-color="#d06952"/><stop offset="0.6575" stop-color="#d76c54"/><stop offset="1" stop-color="#d96d55"/></linearGradient><linearGradient id="linear-gradient-4" x1="14.2337" y1="55.8575" x2="24.1413" y2="58.6316" gradientUnits="userSpaceOnUse"><stop offset="0"/><stop offset="0.088" stop-color="#1f0f0c"/><stop offset="0.2644" stop-color="#572c22"/><stop offset="0.436" stop-color="#854334"/><stop offset="0.5986" stop-color="#aa5542"/><stop offset="0.7498" stop-color="#c4624d"/><stop offset="0.8855" stop-color="#d46a53"/><stop offset="0.9924" stop-color="#d96d55"/></linearGradient><linearGradient id="linear-gradient-5" x1="5.9561" y1="78.8053" x2="21.0976" y2="78.8053" gradientUnits="userSpaceOnUse"><stop offset="0.261" stop-color="#f2ae30"/><stop offset="0.3243" stop-color="#f29426"/><stop offset="0.4023" stop-color="#f27a1b"/><stop offset="0.4728" stop-color="#f26a15"/><stop offset="0.5286" stop-color="#f26513"/><stop offset="0.611" stop-color="#f27218"/><stop offset="0.7641" stop-color="#f29526"/><stop offset="0.858" stop-color="#f2ae30"/></linearGradient><linearGradient id="linear-gradient-6" x1="8.7642" y1="72.4382" x2="17.8716" y2="72.4382" gradientUnits="userSpaceOnUse"><stop offset="0.2648" stop-color="#f26513"/><stop offset="0.3479" stop-color="#de530f"/><stop offset="0.5179" stop-color="#aa2404"/><stop offset="0.5286" stop-color="#a62103"/><stop offset="0.5339" stop-color="#a82303"/><stop offset="0.6225" stop-color="#c8400a"/><stop offset="0.708" stop-color="#df540f"/><stop offset="0.7883" stop-color="#ed6112"/><stop offset="0.858" stop-color="#f26513"/></linearGradient><linearGradient id="linear-gradient-7" x1="3.2945" y1="3.9897" x2="22.3222" y2="12.4065" gradientUnits="userSpaceOnUse"><stop offset="0.1154" stop-color="#fff"/><stop offset="0.156" stop-color="#f6ded8"/><stop offset="0.2011" stop-color="#efc0b5"/><stop offset="0.2507" stop-color="#e8a697"/><stop offset="0.3051" stop-color="#e2917f"/><stop offset="0.3661" stop-color="#de816c"/><stop offset="0.4376" stop-color="#db765f"/><stop offset="0.5293" stop-color="#da6f57"/><stop offset="0.7117" stop-color="#d96d55"/></linearGradient></defs><title>rocket</title><g class="cls-1"><g id="Layer_1" data-name="Layer 1"><path id="body" class="cls-2" d="M22.3514,13.8862A28.9784,28.9784,0,0,0,13.5253.0016V0l-.0009.0008L13.5235,0V.0016A28.9792,28.9792,0,0,0,4.6973,13.8862a26.5878,26.5878,0,0,0-.642,9.6361c.8421,9.3817,1.8811,21.1978,3.25,35.1758H19.7432c1.3692-13.978,2.4082-25.7941,3.25-35.1758A26.5884,26.5884,0,0,0,22.3514,13.8862Z"/><path class="cls-3" d="M5.8851,43.7647c4.9253.5585,9.7794,1.1469,14.7047,1.7054l-4.0731,7.9025-1.0058,2.9621,3.4415.6433-.4121,1.72H7.3056a52.7714,52.7714,0,0,1-.265-6.3925C6.9939,49.4073,6.199,46.6457,5.8851,43.7647Z"/><path id="fin_left" data-name="fin left" class="cls-4" d="M6.11,43.8913a8.21,8.21,0,0,0-4.2936,2.5462A7.5824,7.5824,0,0,0,.492,48.67a9.0494,9.0494,0,0,0-.4815,3.0946,22.918,22.918,0,0,0,.2408,4.0738,44.3307,44.3307,0,0,0,1.2038,5.6406c1.0763,3.7757,2.1566,7.277,3.13,10.302h.7267c.0957-.7468.2136-1.8573.2631-3.212.0331-.9072.007-1.1418,0-2.7159-.0183-4.108.1489-4.9244.2942-5.4709a7.6129,7.6129,0,0,1,1.0433-2.5069,6.29,6.29,0,0,1,1.5784-1.5408L8.13,53.5927q-.5033-2.28-.99-4.6091Q6.6033,46.4142,6.11,43.8913Z"/><path id="fin_right" data-name="fin right" class="cls-5" d="M20.89,43.8913a8.21,8.21,0,0,1,4.2936,2.5462A7.5824,7.5824,0,0,1,26.508,48.67a9.0494,9.0494,0,0,1,.4815,3.0946,22.918,22.918,0,0,1-.2408,4.0738,44.3307,44.3307,0,0,1-1.2038,5.6406c-1.0763,3.7757-2.1566,7.277-3.13,10.302h-.7267c-.0957-.7468-.2136-1.8573-.2631-3.212-.0331-.9072-.007-1.1418,0-2.7159.0183-4.108-.1489-4.9244-.2942-5.4709a7.6129,7.6129,0,0,0-1.0433-2.5069,6.29,6.29,0,0,0-1.5784-1.5408l.3612-2.742q.5033-2.28.99-4.6091Q20.3967,46.4142,20.89,43.8913Z"/><path id="nose" class="cls-6" d="M13.5253.0016V0l-.0009.0008L13.5235,0V.0016C10.61,2.6432,6.64,6.55,4.89,13.1955a35.1954,35.1954,0,0,0,17.2763,0C20.4163,6.55,16.4388,2.6432,13.5253.0016Z"/><g id="flame_outer" data-name="flame outer"><path class="cls-7" d="M13.5239,100l-.0034-.0129-.0007.0018Z"/><path class="cls-8" d="M19.808,70.1859a1.5117,1.5117,0,0,1,1.29,0q-1.9558-2.1848-1.5583-2.7277.2161-.2952,1.1284-.1049l-.6448-1.4163a16.6494,16.6494,0,0,0,.215-4.5636,16.5946,16.5946,0,0,0-.4837-2.7343H7.3a16.5757,16.5757,0,0,0-.2687,7.2979L6.386,67.3533q.9123-.19,1.1285.1049.3975.543-1.5584,2.7277a1.5119,1.5119,0,0,1,1.29,0c.5475.3941.5792,1.648-.3224,2.9375a1.2461,1.2461,0,0,1,1.0747.0525c.6434.425.6554,1.8769-.215,3.567a1.0289,1.0289,0,0,1,.8061.2623c.5325.5654-.3777,1.5908-.215,3.2.1032,1.02.5005.9191.6449,1.9933.1951,1.4514-.1551,1.7862-.1288,3.1932.0257,1.3711.7053,1.5924,1.1285,3.3113.4131,1.6781-.2663,1.94.1075,3.3571.312,1.1831.8544,1.5468,1.827,3.0425a7.5132,7.5132,0,0,1,1.1349,2.56,10.2935,10.2935,0,0,1,.4413,1.3092,19.2772,19.2772,0,0,1,1.9259-3.869A7.857,7.857,0,0,0,16.8388,92.06c.3737-1.4171-.3057-1.679.1075-3.3571.4231-1.7189,1.1027-1.94,1.1284-3.3113a20.1037,20.1037,0,0,1-.04-3.1932c.1444-1.0742.5416-.9734.6448-1.9933.1628-1.609-.7475-2.6344-.2149-3.2a1.0288,1.0288,0,0,1,.806-.2623c-.87-1.69-.8584-3.142-.2149-3.567a1.246,1.246,0,0,1,1.0747-.0525C19.2288,71.8339,19.2605,70.58,19.808,70.1859Z"/></g><path id="flame_inner" data-name="flame inner" class="cls-9" d="M17.8317,61.1636a11.1235,11.1235,0,0,0-.9135-2.5245H9.7176a11.1235,11.1235,0,0,0-.9135,2.5245c-.0374.1863-.0869.4831.0538.577s.3871-.0706.7522-.2623c.5051-.2652,1.2821-.673,1.4509-.5246.1831.161-.4582.88-1.021,2.2556a5.9959,5.9959,0,0,0-.43,3.0949c.1067.6593.2794.7687.3762.7868.274.0515.5185-.5184.6448-.4721.2446.09-.2713,2.372-.4836,4.7211-.0217.24-.0819.963.1612,1.0491.2373.0839.5063-.53.7523-.4721.5121.12.6969,3.0944-.1612,4.7734-.04.0786-.3347.6476-.2149.7344.1112.0806.421-.37.6985-.3147.4073.0806.3328,1.1681.6448,2.7211.3638,1.8106.7876,1.938.6986,3.049a6.5,6.5,0,0,0-.1612,1.6261,3.5846,3.5846,0,0,0,.7523,1.7311,3.5855,3.5855,0,0,0,.7523-1.7311A6.5,6.5,0,0,0,13.909,82.88c-.089-1.111.3348-1.2384.6985-3.049.3121-1.553.2376-2.64.6449-2.7211.2774-.0549.5873.3953.6985.3147.12-.0868-.1747-.6558-.2149-.7344-.8581-1.679-.6733-4.6535-.1612-4.7734.246-.0576.515.556.7523.4721.2431-.0861.1829-.8088.1612-1.0491-.2123-2.3491-.7282-4.6313-.4836-4.7211.1263-.0463.3708.5236.6448.4721.0968-.0181.27-.1275.3761-.7868a5.9961,5.9961,0,0,0-.43-3.0949c-.5628-1.3761-1.2041-2.0946-1.021-2.2556.1688-.1484.9458.2594,1.4508.5246.3652.1917.6119.3561.7523.2623S17.8691,61.35,17.8317,61.1636Z"/><path class="cls-10" d="M11.4066,8.826A16.0969,16.0969,0,0,1,13.5253.0092V.0076l-.0009.0008L13.5235.0076V.0092C10.61,2.6508,6.64,6.5574,4.89,13.2031A38.523,38.523,0,0,0,12.7283,14.27,15.6765,15.6765,0,0,1,11.4066,8.826Z"/><path class="cls-11" d="M10.4955,44.46v3.0327l.0905.1083h2.8178v-.834H12.34l-.0792-.0758V44.46c0-.5632-.1585-.8231-.5659-.8231H11.05c-.3961,0-.5545.26-.5545.8231m1.0411,0c.1924,0,.2263.1192.2263.39V46.68l-.0792.0866h-.6l-.0792-.0758V44.85c0-.26.034-.39.2264-.39Z"/><polyline class="cls-11" points="11.027 42.098 12.136 41.373 12.238 41.416 12.238 43.019 12.77 43.431 12.77 41.048 12.872 40.875 13.404 40.506 13.404 39.542 10.462 41.654"/><polyline class="cls-11" points="12.838 32.535 12.046 32.535 11.967 32.448 11.967 30.834 11.469 30.834 11.469 33.39 13.404 33.39 13.404 29.621 12.906 29.621 12.906 32.437"/><rect class="cls-11" x="10.4955" y="29.5887" width="0.5432" height="3.8017"/><path class="cls-11" d="M11.016,37.6253V34.56c-.4073.0433-.5205.2925-.5205.899v2.1987c0,.6932.1358.91.69.91h1.539c.5432,0,.69-.2166.69-.91V35.4591c0-.6174-.1245-.8557-.5432-.8773v3.0435l-.0906.0866H11.0839"/><path class="cls-11" d="M11.6271,49.6585v2.22l-.0792.065H11.05l-.0566-.065v-3l-.1018-.0433c-.2716.0975-.4074.3683-.4074.8557v2.09c0,.6932.1358.91.69.91h.3282c.5432,0,.69-.2166.69-.91v-2.22l.0679-.065h.5205l.0792.0542v2.5452h0v.6607s.0453.0758.0566.0758c.3848-.0541.4866-.3032.4866-.8989V49.6585c0-.6932-.1358-.9207-.69-.9207h-.396c-.5432,0-.69.2275-.69.9207"/><path class="cls-11" d="M10.4842,27.1951v1.2564l.1358.0649L11.6837,27.13c-.1584-.26-.3168-.5524-.4753-.8557"/><path class="cls-11" d="M12.4759,26.0686l.9279-1.2239V23.5884l-.1244-.0542-1.392,1.82c.1924.2383.3848.4874.5885.7148"/><path class="cls-12" d="M13.4038,27.3792v1.1372l-.1584.0975c-.7808-.769-4.1079-4.2132-4.4587-11.6974,0,0,.2263,6.2711,4.6171,10.4627"/><path class="cls-11" d="M14.502,44.7554a.0816.0816,0,0,1-.07-.0777v-.3759a.06.06,0,0,1,.07-.0542l2.08.3061v-.8564a.058.058,0,0,1,.0713-.0542l.3037.0424a.0817.0817,0,0,1,.07.0777v1.2944a.06.06,0,0,1-.07.0581Z"/><path class="cls-11" d="M16.9307,43.5176,14.4355,42.06a.0719.0719,0,0,1-.041-.066V41.96a.0579.0579,0,0,1,.041-.0542l2.4952-.7134a.074.074,0,0,1,.0966.0737v.3374c0,.0581-.0185.0889-.0742.1006l-.4111.0972v.9648l.4111.2246a.139.139,0,0,1,.0742.1241v.3569C17.0273,43.5254,16.98,43.5449,16.9307,43.5176Zm-.7891-1.5928-.8086.1821v.0078l.8086.4224Z"/><path class="cls-11" d="M14.502,40.5547a.0855.0855,0,0,1-.07-.0776v-.3838a.06.06,0,0,1,.07-.0581l1.5166.2246c.3154.0468.5566-.1084.5566-.38a.6019.6019,0,0,0-.5527-.55L14.502,39.105a.0816.0816,0,0,1-.07-.0777v-.3837a.0623.0623,0,0,1,.07-.0582l1.5429.2291a1.15,1.15,0,0,1,1.02,1.1352.8473.8473,0,0,1-1.02.8335Z"/><path class="cls-11" d="M14.4614,37.9248a.0772.0772,0,0,1-.0669-.0737v-.1006l1.6016-1.1821v-.0039l-1.4941-.209a.0781.0781,0,0,1-.07-.0738v-.3759a.0619.0619,0,0,1,.07-.0581l2.496.3681a.0768.0768,0,0,1,.0665.0738v.1044l-1.65,1.1783v.0039l1.5429.209a.0815.0815,0,0,1,.07.0776v.3721a.0566.0566,0,0,1-.0634.0542Z"/><path class="cls-11" d="M14.3945,34.0781a1.0624,1.0624,0,0,1,.3526-.8066.0745.0745,0,0,1,.1035.0156l.1933.2095a.0906.0906,0,0,1,0,.1279.7125.7125,0,0,0-.1855.48.956.956,0,0,0,.99.8681c.3926,0,.7305-.2207.7305-.5927a.8237.8237,0,0,0-.2187-.5313c-.0411-.05-.0342-.0928.0029-.124l.2412-.2017a.0859.0859,0,0,1,.1006.02,1.2676,1.2676,0,0,1,.3594.8759,1.0922,1.0922,0,0,1-1.1534,1.1045A1.4589,1.4589,0,0,1,14.3945,34.0781Z"/><path class="cls-11" d="M14.502,32.7271a.0851.0851,0,0,1-.07-.0777v-.3721a.06.06,0,0,1,.07-.0581l.9824.1436V31.3047l-.9824-.1436a.0814.0814,0,0,1-.07-.0771v-.3721a.062.062,0,0,1,.07-.0581l2.455.36a.0882.0882,0,0,1,.07.0776v.3755a.0575.0575,0,0,1-.07.0547l-1.0234-.1514v1.0581l1.0234.1514a.084.084,0,0,1,.07.0771v.376a.0569.0569,0,0,1-.07.0542Z"/><path class="cls-11" d="M16.6641,29.55l-.212-.1514a.0781.0781,0,0,1-.0146-.12.7983.7983,0,0,0,.1934-.48.3341.3341,0,0,0-.3155-.3452c-.1631,0-.2705.1162-.4082.3335a.9267.9267,0,0,1-.7412.5581.7866.7866,0,0,1-.7715-.8759,1.0889,1.0889,0,0,1,.2412-.69.1027.1027,0,0,1,.1485-.0117l.2041.1514c.0439.0307.0478.0815.0068.1357a.7834.7834,0,0,0-.1631.438.3108.3108,0,0,0,.2891.3291c.1484,0,.2227-.1045.3711-.3369.1631-.2559.3672-.5967.7754-.5967a.8356.8356,0,0,1,.7969.9263,1.0831,1.0831,0,0,1-.2891.7363C16.7529,29.5732,16.72,29.5928,16.6641,29.55Z"/><path class="cls-11" d="M14.502,27.1221a.081.081,0,0,1-.07-.0738v-.38a.0574.0574,0,0,1,.07-.0542l2.455.36a.081.081,0,0,1,.07.0737v.38a.0569.0569,0,0,1-.07.0542Z"/><path class="cls-11" d="M14.877,25.6953v.5117a.06.06,0,0,1-.07.0581l-.3046-.0468a.081.081,0,0,1-.07-.0738V24.606a.06.06,0,0,1,.07-.0581l.3046.0468a.0807.0807,0,0,1,.07.0772v.5117l2.08.3061a.0846.0846,0,0,1,.07.0777v.376a.062.062,0,0,1-.07.0581Z"/><path class="cls-11" d="M14.502,24.147a.081.081,0,0,1-.07-.0738v-1.434a.06.06,0,0,1,.07-.0581l.3046.0468a.0811.0811,0,0,1,.07.0772v.9922l.6074.0893v-.8218a.0629.0629,0,0,1,.0713-.0581l.3076.0464a.0844.0844,0,0,1,.07.0777v.8217l.6484.0967v-.9961a.0581.0581,0,0,1,.0713-.0542l.3037.043a.0806.0806,0,0,1,.07.0771v1.4341a.0551.0551,0,0,1-.07.0542Z"/></g></g></svg>