<svg id="Layer_1" data-name="Layer 1" xmlns="http://www.w3.org/2000/svg" xmlns:xlink="http://www.w3.org/1999/xlink" viewBox="0 0 25 25"><defs><style>.cls-1{fill:url(#radial-gradient);}.cls-2{fill:#020202;}.cls-3{fill:#fff;}</style><radialGradient id="radial-gradient" cx="11.6909" cy="26.8397" r="32.07" gradientUnits="userSpaceOnUse"><stop offset="0.0918" stop-color="#faf707"/><stop offset="0.7296" stop-color="#fffc00"/></radialGradient></defs><title>social_sm</title><path class="cls-1" d="M5.1348,0H19.8659A5.1341,5.1341,0,0,1,25,5.1337V19.8663A5.1341,5.1341,0,0,1,19.8659,25H5.1348A5.1348,5.1348,0,0,1,0,19.8656V5.1344A5.1348,5.1348,0,0,1,5.1348,0Z"/><path class="cls-2" d="M8.1088,6.9424c.0314-.0707.0661-.139.1-.2081a4.61,4.61,0,0,1,.8043-1.15,4.2426,4.2426,0,0,1,.9435-.7328,4.5051,4.5051,0,0,1,.95-.4066,4.9359,4.9359,0,0,1,.8292-.1756,6.14,6.14,0,0,1,.8164-.0418,6.2662,6.2662,0,0,1,.8084.051,5.0633,5.0633,0,0,1,.8559.2029,4.5055,4.5055,0,0,1,.96.4473,4.2625,4.2625,0,0,1,.9353.7878A4.8536,4.8536,0,0,1,16.89,6.94a9.038,9.038,0,0,1,.1986,3.55c-.0122.1918-.0233.3779-.0329.5559l-.0033.0754.0491.058a.9207.9207,0,0,0,.6436.2408h.0136a1.8266,1.8266,0,0,0,.5521-.1051,4.83,4.83,0,0,1,.4861-.1763.7729.7729,0,0,1,.618.1845c.1174.1362-.012.3137-.1206.4a2.0007,2.0007,0,0,1-.519.28c-.0644.025-.1471.051-.2427.0821-.4194.1326-1.0543.3341-1.2672.8363a1.1772,1.1772,0,0,0,.0981.994,5.7779,5.7779,0,0,0,3.9687,3.32.1108.1108,0,0,1-.0111.0426c-.046.1077-.3369.479-2.1417.7579-.2845.0441-.3535.3608-.4331.729-.0289.1316-.0586.2648-.1.4023-.012.0418-.0144.0443-.0585.0443h-.0211a2.0081,2.0081,0,0,1-.3431-.0443,5.3348,5.3348,0,0,0-1.0565-.1109,4.6542,4.6542,0,0,0-.7667.0643,3.6845,3.6845,0,0,0-1.4785.7468,7.5226,7.5226,0,0,1-.9048.5751,3.1,3.1,0,0,1-1.1155.3311c-.0874.008-.1751.01-.2612.0137a3.3957,3.3957,0,0,1-1.2221-.1585,4.2349,4.2349,0,0,1-.9709-.5037c-.1253-.0836-.2482-.171-.3712-.2577A3.6845,3.6845,0,0,0,8.5982,19.12a4.6491,4.6491,0,0,0-.7665-.0643,5.2424,5.2424,0,0,0-1.056.1175,2.2037,2.2037,0,0,1-.3423.0521c-.0658,0-.0667-.0033-.08-.0521-.0416-.1376-.07-.2732-.0988-.4051-.0812-.37-.15-.687-.4331-.73-1.8064-.279-2.0973-.6517-2.1431-.7586a.2261.2261,0,0,1-.0112-.0443,5.7708,5.7708,0,0,0,3.9688-3.32,1.1722,1.1722,0,0,0,.0981-.994c-.213-.5022-.8463-.7037-1.2666-.8363-.0963-.0311-.179-.0571-.2419-.0821-.2483-.098-1.01-.4554-.515-.76a.6.6,0,0,1,.35-.099,1.2873,1.2873,0,0,1,.3753.12,2.1814,2.1814,0,0,0,.7624.1584.93.93,0,0,0,.6992-.2431l.049-.058-.0024-.0754c-.01-.1766-.021-.3641-.0339-.5549A9.0653,9.0653,0,0,1,8.1088,6.9424Zm2.0853-2.6963a4.7066,4.7066,0,0,0-1.3507.896A5.0266,5.0266,0,0,0,7.7143,6.7645a9.25,9.25,0,0,0-.2387,3.7506l.0017.0025c.0081.1338.0167.2748.0248.4122a.7354.7354,0,0,1-.3038.0564,1.7784,1.7784,0,0,1-.6314-.1376,1.5888,1.5888,0,0,0-.5377-.1451,1.03,1.03,0,0,0-.5264.1517.7756.7756,0,0,0-.392.5039.6965.6965,0,0,0,.2642.6517,2.2828,2.2828,0,0,0,.6905.396c.0786.0313.1718.06.27.0915.3441.11.8631.2749,1,.5931a.7742.7742,0,0,1-.0893.6316l-.0079.021a5.4552,5.4552,0,0,1-.6068,1.0332,5.5063,5.5063,0,0,1-1.3083,1.3189,4.3576,4.3576,0,0,1-.8558.4658,8.47,8.47,0,0,1-.8356.23.4634.4634,0,0,0-.397.467.5636.5636,0,0,0,.0451.1905,1.1548,1.1548,0,0,0,.6275.5383,7.1888,7.1888,0,0,0,1.8121.4726,2.2787,2.2787,0,0,1,.1108.4c.0289.14.06.2836.1061.4355a.4752.4752,0,0,0,.4974.3639,2.4194,2.4194,0,0,0,.425-.06,4.8853,4.8853,0,0,1,.9733-.11,4.2322,4.2322,0,0,1,.6958.06,3.2923,3.2923,0,0,1,1.2976.6719c.04.0265.0774.0537.1159.081a7.0242,7.0242,0,0,0,.871.5408,3.6,3.6,0,0,0,1.0856.3441,4.5492,4.5492,0,0,0,.6566.0329,4.1613,4.1613,0,0,0,.7208-.0619,3.68,3.68,0,0,0,1.051-.3889q.2279-.1233.4435-.2694a4.5818,4.5818,0,0,0,.4044-.2786V20.22a3.3115,3.3115,0,0,1,1.2984-.671,4.2253,4.2253,0,0,1,.6953-.06,4.8227,4.8227,0,0,1,.973.1039,2.3156,2.3156,0,0,0,.4266.0521h.0211a.4692.4692,0,0,0,.4756-.3568c.0451-.1495.0764-.2893.1062-.4322a2.1959,2.1959,0,0,1,.1117-.3977,7.1758,7.1758,0,0,0,1.8105-.4719A1.1694,1.1694,0,0,0,21.72,17.45a.5856.5856,0,0,0,.0458-.1912.4334.4334,0,0,0-.3626-.4523,5.3617,5.3617,0,0,1-3.64-3.0624l-.01-.021a.7655.7655,0,0,1-.0875-.6316c.135-.3182.6541-.4829.9981-.5931.1-.0312.1929-.0611.27-.0915a2.0813,2.0813,0,0,0,.74-.4435.6975.6975,0,0,0,.2251-.5064.86.86,0,0,0-.9065-.7561,1.7918,1.7918,0,0,0-.6452.1413,1.8525,1.8525,0,0,1-.594.1428.6814.6814,0,0,1-.2561-.0562c.0077-.1153.0143-.2344.0225-.3585l.0038-.0539a9.2619,9.2619,0,0,0-.2371-3.753,5.0571,5.0571,0,0,0-1.1346-1.6276A4.6976,4.6976,0,0,0,14.797,4.24a5.3767,5.3767,0,0,0-1.6305-.4216c-.2144-.0208-.4362-.0377-.6509-.0377a6.1932,6.1932,0,0,0-1.4215.1636A5.2052,5.2052,0,0,0,10.1941,4.2461Z"/><path class="cls-3" d="M19.18,18.035c1.8048-.2789,2.0957-.65,2.1417-.7579a.1108.1108,0,0,0,.0111-.0426,5.7779,5.7779,0,0,1-3.9687-3.32,1.1772,1.1772,0,0,1-.0981-.994c.2129-.5022.8478-.7037,1.2672-.8363.0956-.0311.1783-.0571.2427-.0821a2.0007,2.0007,0,0,0,.519-.28c.1086-.0864.238-.2639.1206-.4a.7729.7729,0,0,0-.618-.1845,4.83,4.83,0,0,0-.4861.1763,1.8266,1.8266,0,0,1-.5521.1051h-.0136a.9207.9207,0,0,1-.6436-.2408l-.0491-.058.0033-.0754c.01-.178.0207-.3641.0329-.5559A9.038,9.038,0,0,0,16.89,6.94a4.8536,4.8536,0,0,0-.7786-1.2231,4.2625,4.2625,0,0,0-.9353-.7878,4.5055,4.5055,0,0,0-.96-.4473,5.0633,5.0633,0,0,0-.8559-.2029,6.2662,6.2662,0,0,0-.8084-.051,6.14,6.14,0,0,0-.8164.0418,4.9359,4.9359,0,0,0-.8292.1756,4.5051,4.5051,0,0,0-.95.4066,4.2426,4.2426,0,0,0-.9435.7328,4.61,4.61,0,0,0-.8043,1.15c-.0336.0691-.0683.1374-.1.2081A9.0653,9.0653,0,0,0,7.91,10.49c.0129.1908.0235.3783.0339.5549l.0024.0754-.049.058a.93.93,0,0,1-.6992.2431,2.1814,2.1814,0,0,1-.7624-.1584,1.2873,1.2873,0,0,0-.3753-.12.6.6,0,0,0-.35.099c-.495.3049.2667.6623.515.76.0629.025.1456.051.2419.0821.42.1326,1.0536.3341,1.2666.8363a1.1722,1.1722,0,0,1-.0981.994,5.7708,5.7708,0,0,1-3.9688,3.32.2261.2261,0,0,0,.0112.0443c.0458.1069.3367.48,2.1431.7586.2828.0434.3519.3607.4331.73.029.1319.0572.2675.0988.4051.0137.0488.0146.0521.08.0521a2.2037,2.2037,0,0,0,.3423-.0521,5.2424,5.2424,0,0,1,1.056-.1175,4.6491,4.6491,0,0,1,.7665.0643,3.6845,3.6845,0,0,1,1.4785.7468c.123.0867.2459.1741.3712.2577a4.2349,4.2349,0,0,0,.9709.5037,3.3957,3.3957,0,0,0,1.2221.1585c.0861-.004.1738-.0057.2612-.0137a3.1,3.1,0,0,0,1.1155-.3311,7.5226,7.5226,0,0,0,.9048-.5751,3.6845,3.6845,0,0,1,1.4785-.7468,4.6542,4.6542,0,0,1,.7667-.0643,5.3348,5.3348,0,0,1,1.0565.1109,2.0081,2.0081,0,0,0,.3431.0443h.0211c.0441,0,.0465-.0025.0585-.0443.0411-.1375.0708-.2707.1-.4023C18.8261,18.3958,18.8951,18.0791,19.18,18.035Z"/></svg>