<svg id="Layer_1" data-name="Layer 1" xmlns="http://www.w3.org/2000/svg" xmlns:xlink="http://www.w3.org/1999/xlink" viewBox="0 0 25 25"><defs><style>.cls-1{fill:url(#radial-gradient);}.cls-2{fill:#fff;}</style><radialGradient id="radial-gradient" cx="7.3232" cy="26.9364" r="33.1288" gradientUnits="userSpaceOnUse"><stop offset="0.0969" stop-color="#ffd879"/><stop offset="0.1539" stop-color="#fccb76"/><stop offset="0.2583" stop-color="#f5aa6c"/><stop offset="0.3976" stop-color="#e9755e"/><stop offset="0.449" stop-color="#e45f58"/><stop offset="0.6786" stop-color="#d22a9c"/><stop offset="1" stop-color="#6968df"/></radialGradient></defs><title>social_sm</title><path class="cls-1" d="M5.1348,0h14.73A5.1349,5.1349,0,0,1,25,5.1346V19.8639A5.1364,5.1364,0,0,1,19.8636,25H5.1349A5.1349,5.1349,0,0,1,0,19.8654V5.1345A5.1348,5.1348,0,0,1,5.1348,0Z"/><path class="cls-2" d="M16.1182,3.0728H8.882a5.8094,5.8094,0,0,0-5.8094,5.81v7.2357A5.8088,5.8088,0,0,0,8.882,21.927h7.2362a5.8086,5.8086,0,0,0,5.809-5.8086V8.8827A5.8092,5.8092,0,0,0,16.1182,3.0728Zm3.9993,12.351a4.6939,4.6939,0,0,1-4.6936,4.694H9.5763a4.6938,4.6938,0,0,1-4.6945-4.694V9.5762a4.6948,4.6948,0,0,1,4.6945-4.694h5.8476a4.6949,4.6949,0,0,1,4.6936,4.694Z"/><path class="cls-2" d="M12.7528,7.5669a4.9661,4.9661,0,1,0,4.966,4.966A4.9658,4.9658,0,0,0,12.7528,7.5669Zm0,7.9537A2.9879,2.9879,0,1,1,15.74,12.5329,2.988,2.988,0,0,1,12.7528,15.5206Z"/><path class="cls-2" d="M18.6381,7.4893a1.2628,1.2628,0,1,1-1.2633-1.2636A1.2636,1.2636,0,0,1,18.6381,7.4893Z"/></svg>