<svg id="Layer_1" data-name="Layer 1" xmlns="http://www.w3.org/2000/svg" viewBox="0 0 25 25"><defs><style>.cls-1{fill:#1da1f2;}.cls-2{fill:#fff;}</style></defs><title>social_sm</title><path class="cls-1" d="M5.1347,0H19.8638A5.1362,5.1362,0,0,1,25,5.1362V19.8637A5.1364,5.1364,0,0,1,19.8636,25H5.1362A5.1362,5.1362,0,0,1,0,19.8639V5.1346A5.1347,5.1347,0,0,1,5.1347,0Z"/><path class="cls-2" d="M9.5228,19.7441A10.0948,10.0948,0,0,0,19.6862,9.58c0-.1543-.0024-.3085-.0106-.4613a7.2444,7.2444,0,0,0,1.7815-1.85,7.1607,7.1607,0,0,1-2.0506.5624,3.5938,3.5938,0,0,0,1.571-1.9759,7.1888,7.1888,0,0,1-2.2686.8679,3.5724,3.5724,0,0,0-6.1784,2.4419,3.6477,3.6477,0,0,0,.0916.8158A10.15,10.15,0,0,1,5.259,6.2483a3.5741,3.5741,0,0,0,1.1066,4.7682,3.5456,3.5456,0,0,1-1.6184-.4474c-.0008.0161-.0008.03-.0008.0456A3.573,3.573,0,0,0,7.611,14.1166a3.5791,3.5791,0,0,1-.94.1261,3.5257,3.5257,0,0,1-.6716-.0659,3.5764,3.5764,0,0,0,3.3363,2.4823,7.1625,7.1625,0,0,1-4.4365,1.5292,7.2361,7.2361,0,0,1-.8517-.05,10.1018,10.1018,0,0,0,5.4754,1.6058"/></svg>