<svg id="Layer_1" data-name="Layer 1" xmlns="http://www.w3.org/2000/svg" xmlns:xlink="http://www.w3.org/1999/xlink" viewBox="0 0 25 25"><defs><style>.cls-1{fill:url(#radial-gradient);}.cls-2{fill:#fff;}</style><radialGradient id="radial-gradient" cx="12.6898" cy="30.6213" r="33.6706" gradientUnits="userSpaceOnUse"><stop offset="0" stop-color="#3b5998"/><stop offset="0.301" stop-color="#3b5998"/><stop offset="1" stop-color="#5f83cf"/></radialGradient></defs><title>social_sm</title><path class="cls-1" d="M5.135,0H19.8645A5.1355,5.1355,0,0,1,25,5.136V19.8647A5.1348,5.1348,0,0,1,19.8652,25H5.1347A5.1347,5.1347,0,0,1,0,19.8649V5.1355A5.135,5.135,0,0,1,5.135,0Z"/><path class="cls-2" d="M19.2217,6.8725h2.3062V3.2476H18.0718a4.6853,4.6853,0,0,0-3.5583,1.7465s-.9434.89-.9578,3.4943H13.555v2.7187H10.139v3.849h3.416V25h3.94V15.0561h3.3894l.4724-3.849H17.4949V8.4884h-.001A1.5809,1.5809,0,0,1,19.2217,6.8725Z"/></svg>