<svg id="Layer_1" data-name="Layer 1" xmlns="http://www.w3.org/2000/svg" viewBox="0 0 160 42"><defs><style>.cls-1{fill:#fff;}.cls-2{fill:#a8aaad;}</style></defs><title>spacex_logo_540x67-01</title><path class="cls-1" d="M37.298,7.4308h-13.51l-.4825.3937V20.0787h3.7153V15.4526l.3378-.3445h9.94c2.509,0,3.667-.689,3.667-2.4607V9.8422c0-1.7224-1.158-2.4114-3.667-2.4114m0,4.5276c0,.8367-.5308.9843-1.7371.9843H27.4065l-.386-.3445V9.99l.3378-.3445h8.2026c1.158,0,1.737.1476,1.737.9843v1.3287Z"/><polyline class="cls-1" points="47.817 9.744 51.049 14.567 50.856 15.01 43.715 15.01 41.882 17.323 52.497 17.323 53.269 17.766 54.91 20.079 59.204 20.079 49.795 7.283"/><polyline class="cls-1" points="90.422 17.618 90.422 14.173 90.808 13.829 97.998 13.829 97.998 11.663 86.61 11.663 86.61 20.079 103.402 20.079 103.402 17.913 90.856 17.913"/><rect class="cls-1" x="86.6104" y="7.4308" width="16.9361" height="2.3622"/><path class="cls-1" d="M67.7443,9.6946h13.655c-.193-1.7717-1.3028-2.2638-4.0049-2.2638H67.6c-3.088,0-4.0531.5906-4.0531,3.002v6.693c0,2.3623.9651,3.0021,4.0531,3.0021h9.7949c2.75,0,3.8119-.5414,3.9084-2.3623H67.7443l-.386-.3937V9.99"/><path class="cls-1" d="M14.1375,12.3521H4.2461l-.29-.3445V9.8422l.29-.246H17.6116l.193-.4429c-.4343-1.1812-1.64-1.7717-3.8118-1.7717H4.68c-3.088,0-4.053.5905-4.053,3.002v1.4272c0,2.3622.965,3.002,4.053,3.002h9.8915l.29.2953v2.2638l-.2413.3445H.3378S0,17.9133,0,17.9625c.2413,1.6732,1.351,2.1162,4.0048,2.1162H14.1375c3.0881,0,4.1013-.5906,4.1013-3.0021V15.3542c0-2.3623-1.0132-3.0021-4.1013-3.0021"/><path class="cls-1" d="M114.21,7.3816h-5.5971l-.2895.5905,6.1761,4.6261c1.158-.689,2.4608-1.378,3.8118-2.067"/><path class="cls-1" d="M119.228,16.0431l5.4523,4.0356h5.5971l.2413-.5414-8.1062-6.0533c-1.0615.8367-2.1712,1.6733-3.1845,2.5591"/><path class="cls-2" d="M113.39,20.0787h-5.0663l-.4343-.689C111.3148,15.9939,126.6586,1.5252,160,0c0,0-27.9373.9842-46.61,20.0791"/><path class="cls-1" d="M35.9857,24.87a.3588.3588,0,0,1,.3452-.3056h1.6758a.2591.2591,0,0,1,.2417.3056l-1.3648,9.0313H40.701a.25.25,0,0,1,.2417.3057l-.19,1.32a.3584.3584,0,0,1-.3452.3056h-5.77a.2614.2614,0,0,1-.2588-.3056Z"/><path class="cls-1" d="M41.4989,35.4144,47.9935,24.58a.3212.3212,0,0,1,.2934-.1768h.1553a.2576.2576,0,0,1,.2422.1768l3.1782,10.834a.3223.3223,0,0,1-.3281.4189H50.0316c-.2593,0-.3975-.08-.4492-.3222l-.4317-1.7862H44.8494L43.848,35.5111a.62.62,0,0,1-.5528.3222H41.7059C41.4642,35.8333,41.3778,35.6243,41.4989,35.4144Zm7.0991-3.4287-.812-3.5088h-.0347l-1.8828,3.5088Z"/><path class="cls-1" d="M54.7,24.87a.3737.3737,0,0,1,.3453-.3056h1.71a.2616.2616,0,0,1,.2593.3056l-1.002,6.584c-.207,1.3682.4839,2.4151,1.6929,2.4151a2.6471,2.6471,0,0,0,2.4527-2.3985L61.16,24.87a.359.359,0,0,1,.3457-.3056h1.71a.2708.2708,0,0,1,.2588.3056l-1.0191,6.6973a5.0824,5.0824,0,0,1-5.061,4.4268,3.7077,3.7077,0,0,1-3.7134-4.4268Z"/><path class="cls-1" d="M66.4154,24.6937a.3414.3414,0,0,1,.3281-.29h.4492l5.2681,6.9541h.0176L73.411,24.87a.3411.3411,0,0,1,.3281-.3056h1.6753a.2711.2711,0,0,1,.2593.3056l-1.6411,10.834a.3406.3406,0,0,1-.3282.29h-.4663L67.9871,28.83H67.97l-.9327,6.6973a.3592.3592,0,0,1-.3457.3056H65.0335a.2491.2491,0,0,1-.2417-.2734Z"/><path class="cls-1" d="M83.555,24.4036a4.7866,4.7866,0,0,1,3.5928,1.5293.3188.3188,0,0,1-.0693.4512l-.9327.8369a.4107.4107,0,0,1-.57,0,3.227,3.227,0,0,0-2.1421-.8047,4.1916,4.1916,0,0,0-3.8691,4.2979c0,1.706.9848,3.1709,2.643,3.1709a3.7006,3.7006,0,0,0,2.3663-.9492.3606.3606,0,0,1,.5527.0156l.8984,1.0469a.3592.3592,0,0,1-.0864.4345,5.7221,5.7221,0,0,1-3.9038,1.5616,4.7986,4.7986,0,0,1-4.9229-5.0069A6.4123,6.4123,0,0,1,83.555,24.4036Z"/><path class="cls-1" d="M89.57,24.87a.3745.3745,0,0,1,.3457-.3056h1.6582a.2611.2611,0,0,1,.2588.3056l-.6387,4.2666h4.7148l.64-4.2666a.3593.3593,0,0,1,.3457-.3056h1.6582a.2706.2706,0,0,1,.2588.3056L97.2044,35.5277a.3907.3907,0,0,1-.3457.3056H95.1839a.25.25,0,0,1-.2422-.3056l.6739-4.4434H90.9l-.6738,4.4434a.3735.3735,0,0,1-.3447.3056H88.2054a.25.25,0,0,1-.2422-.3056Z"/><path class="cls-1" d="M103.723,34.2562l.6738-.918a.3518.3518,0,0,1,.5352-.0644,3.62,3.62,0,0,0,2.1416.8369,1.473,1.473,0,0,0,1.5381-1.3682c0-.708-.5186-1.1748-1.4864-1.77-1.14-.6924-2.4873-1.61-2.4873-3.22s1.1924-3.3487,3.9043-3.3487a4.9267,4.9267,0,0,1,3.0742,1.0469.4352.4352,0,0,1,.0518.6436l-.6738.8857c-.1377.1924-.3623.209-.6045.0322a3.5246,3.5246,0,0,0-1.9512-.7089,1.3739,1.3739,0,0,0-1.4687,1.2558c0,.6436.4667.9658,1.5029,1.6094,1.1406.709,2.66,1.5937,2.66,3.3652,0,1.8828-1.5722,3.461-4.1279,3.461a4.8787,4.8787,0,0,1-3.2822-1.2559C103.62,34.6419,103.5326,34.4974,103.723,34.2562Z"/><path class="cls-1" d="M114.5394,24.87a.3561.3561,0,0,1,.3281-.3056h1.6934a.2494.2494,0,0,1,.2412.3056l-1.6065,10.6573a.3544.3544,0,0,1-.3281.3056h-1.6924a.2506.2506,0,0,1-.2422-.3056Z"/><path class="cls-1" d="M120.8978,26.4964h-2.28a.2621.2621,0,0,1-.2588-.3056l.2071-1.32a.3562.3562,0,0,1,.3291-.3056h6.8564a.2623.2623,0,0,1,.26.3056l-.208,1.32a.3575.3575,0,0,1-.3448.3056h-2.28l-1.3643,9.0313a.3746.3746,0,0,1-.3457.3056h-1.6758a.2707.2707,0,0,1-.2588-.3056Z"/><path class="cls-1" d="M127.7923,24.87a.3562.3562,0,0,1,.3281-.3056h6.3916a.261.261,0,0,1,.2588.3056l-.207,1.32a.3593.3593,0,0,1-.3457.3056h-4.4219l-.3974,2.6406h3.6621a.2709.2709,0,0,1,.2588.3057l-.2071,1.3359a.3722.3722,0,0,1-.3457.3057h-3.6611l-.4326,2.8174h4.4394a.2505.2505,0,0,1,.2422.3057l-.19,1.32a.3594.3594,0,0,1-.3457.3056h-6.3906a.2424.2424,0,0,1-.2422-.3056Z"/></svg>